# xmcd
#
# Track frame offsets:
#	150
#	17417
#	37787
#	54907
#	69085
#	87347
#	106142
#	124225
#	143747
#
# Disc length: 2121 seconds
#
# Revision: 0
# Processed by: cddbd v1.4PL0 Copyright (c) Steve Scherf et al.
# Submitted via: audiograbber 1.80.04
#
DISCID=63084709
DTITLE=Edith Butler - Edith Butler
DYEAR=1900
DGENRE=Pop
TTITLE0=Drôle D'hiver
TTITLE1=Un Million De Fois Je T'aime
TTITLE2=Certains Jours De Pluie
TTITLE3=Matawila
TTITLE4=Coeur Qui Danse
TTITLE5=Cajuns De L'an 2000
TTITLE6=Comme Un Béluga
TTITLE7=Ne Pleure Pas
TTITLE8=Super Happening
EXTD=
EXTT0=
EXTT1=
EXTT2=
EXTT3=
EXTT4=
EXTT5=
EXTT6=
EXTT7=
EXTT8=
PLAYORDER=
